<?xml version="1.0" standalone="no"?>
<!DOCTYPE svg PUBLIC "-//W3C//DTD SVG 20010904//EN"
 "http://www.w3.org/TR/2001/REC-SVG-20010904/DTD/svg10.dtd">
<svg version="1.0" xmlns="http://www.w3.org/2000/svg"
 width="310.000000pt" height="310.000000pt" viewBox="0 0 310.000000 310.000000"
 preserveAspectRatio="xMidYMid meet">
<metadata>
Created by potrace 1.11, written by Peter Selinger 2001-2013
</metadata>
<g transform="translate(0.000000,310.000000) scale(0.100000,-0.100000)"
fill="#000000" stroke="none">
<path d="M938 1838 l-3 -613 -30 -54 c-33 -59 -67 -90 -141 -123 -39 -18 -67
-22 -144 -23 -104 0 -138 11 -196 67 l-32 30 -93 -63 c-52 -34 -96 -64 -98
-66 -12 -9 90 -96 149 -127 123 -65 256 -81 408 -50 198 40 344 165 405 344
21 64 22 78 25 678 l3 612 -125 0 -125 0 -3 -612z"/>
<path d="M1660 1635 l0 -815 120 0 120 0 0 315 0 315 253 0 c282 0 346 9 447
60 153 77 241 214 256 399 16 203 -79 388 -246 475 -115 61 -158 66 -577 66
l-373 0 0 -815z m805 568 c91 -49 138 -134 139 -253 0 -117 -47 -204 -139
-253 -38 -21 -56 -22 -302 -25 l-263 -3 0 281 0 281 263 -3 c246 -3 264 -4
302 -25z"/>
</g>
</svg>
